<?xml version="1.0" standalone="no"?>
<!DOCTYPE svg PUBLIC "-//W3C//DTD SVG 20010904//EN"
 "http://www.w3.org/TR/2001/REC-SVG-20010904/DTD/svg10.dtd">
<svg version="1.0" xmlns="http://www.w3.org/2000/svg"
 width="1920.000000pt" height="1080.000000pt" viewBox="0 0 1920.000000 1080.000000"
 preserveAspectRatio="xMidYMid meet">

<g transform="translate(0.000000,1080.000000) scale(0.100000,-0.100000)"
fill="#000000" stroke="none">
<path d="M8911 6577 l1 -233 33 33 c33 33 65 37 65 7 0 -7 14 -35 30 -61 18
-27 26 -49 20 -51 -6 -2 -2 -12 9 -21 19 -17 19 -18 -10 -65 -25 -39 -29 -54
-24 -89 11 -80 17 -97 41 -116 18 -14 21 -20 10 -24 -13 -5 -20 -30 -31 -117
-6 -53 -34 -98 -67 -110 -18 -7 -36 -12 -40 -11 -5 0 -8 -7 -8 -18 0 -10 -7
-24 -15 -31 -21 -17 -19 -32 9 -83 l25 -44 -25 -36 c-13 -20 -24 -46 -24 -58
0 -20 2 -19 35 10 58 50 71 43 106 -54 31 -84 48 -91 94 -41 18 20 42 36 55
36 l22 0 -22 -35 c-14 -23 -24 -58 -27 -98 -7 -88 -7 -89 -40 -76 -15 6 -37
13 -48 15 -12 2 -48 13 -80 24 -33 12 -68 24 -77 27 -17 5 -18 -26 -17 -563 0
-444 3 -565 12 -550 113 175 109 171 155 174 61 5 152 -22 250 -72 47 -25 79
-39 71 -31 -21 21 -158 91 -210 109 -26 8 -67 16 -93 17 -25 2 -46 5 -46 8 1
14 17 27 45 36 66 22 81 124 29 200 -22 33 -23 40 -13 81 l12 45 17 -29 c48
-78 142 -142 240 -163 l50 -11 0 -93 c0 -55 -4 -97 -11 -100 -7 -5 -5 -11 4
-18 20 -16 50 -199 34 -209 -12 -7 -47 -11 -278 -28 -80 -6 -152 -9 -160 -6
-8 2 -35 7 -61 10 l-48 6 0 -40 0 -40 288 0 289 0 22 24 c27 28 80 56 108 56
15 0 16 -2 3 -10 -12 -8 -9 -10 13 -10 15 0 27 -4 27 -10 0 -5 -6 -10 -14 -10
-8 0 -24 -9 -37 -20 -24 -19 -23 -19 329 -20 l352 0 0 1410 0 1410 -690 0
-690 0 1 -233z m734 -515 c0 -31 -4 -65 -9 -74 -7 -17 -6 -17 20 -3 32 16 129
20 138 6 4 -5 -8 -21 -25 -35 l-31 -26 26 0 c14 0 26 -4 26 -9 0 -5 3 -23 6
-40 l7 -31 -361 0 -361 0 6 38 c3 20 7 39 9 41 2 2 114 3 250 2 234 -2 246 -1
240 16 -24 61 -18 125 16 168 29 37 43 19 43 -53z m-547 -31 c3 -8 -1 -12 -9
-9 -7 2 -15 10 -17 17 -3 8 1 12 9 9 7 -2 15 -10 17 -17z m816 -10 c10 -16 -6
-42 -23 -39 -9 2 -17 13 -19 26 -3 16 2 22 17 22 11 0 22 -4 25 -9z m-362
-201 l88 0 0 -28 c0 -26 -3 -28 -30 -24 -37 5 -86 -14 -105 -41 -19 -27 -108
-30 -124 -5 -16 26 -70 50 -102 46 -27 -4 -29 -2 -29 30 l0 35 107 -6 c58 -4
146 -7 195 -7z m-67 -177 c13 -73 85 -118 148 -94 30 12 30 12 42 -43 6 -26 0
-35 -54 -87 -66 -62 -131 -99 -177 -99 -44 0 -123 43 -189 103 l-57 52 11 43
c7 23 13 42 15 42 2 0 17 -5 34 -11 66 -23 142 33 142 104 0 25 3 27 39 27 37
0 39 -2 46 -37z m-151 -322 c3 -5 -5 -16 -19 -25 -14 -9 -25 -22 -25 -28 0 -6
10 -2 23 10 28 26 47 28 47 5 0 -25 -37 -97 -61 -119 -17 -16 -22 -16 -29 -4
-6 9 -10 10 -10 3 0 -18 18 -25 38 -14 22 12 72 101 72 128 0 17 7 19 58 19
31 -1 66 2 78 7 20 7 21 5 13 -40 -20 -123 0 -216 55 -258 18 -14 41 -25 52
-26 10 -1 2 -5 -18 -11 -26 -7 -58 -32 -111 -87 -105 -110 -135 -196 -100
-287 6 -16 4 -16 -26 2 -51 30 -130 119 -157 178 -55 119 -53 211 6 364 33 85
50 111 43 64 -3 -19 1 -15 11 13 19 48 19 48 5 40 -6 -4 -1 11 10 34 21 40 34
50 45 32z m386 -21 c0 -22 2 -25 20 -32 10 -4 44 -40 75 -80 32 -40 93 -109
137 -154 l79 -80 -54 -17 c-66 -21 -102 -47 -125 -93 l-18 -34 -84 99 c-100
118 -113 149 -107 251 5 91 27 150 56 150 12 0 21 -4 21 -10z m-44 -445 c-8
-8 -23 -15 -33 -16 -16 0 -16 -1 2 -10 l20 -9 -20 2 c-11 2 -26 -1 -32 -5 -29
-18 -10 10 20 30 38 26 67 31 43 8z m50 -61 c21 -12 73 -98 121 -196 12 -25
27 -49 33 -53 15 -9 12 -28 -2 -19 -8 4 -10 3 -5 -2 5 -5 13 -9 18 -9 5 0 9
-2 8 -5 -1 -3 15 -22 35 -43 20 -21 34 -43 30 -48 -3 -5 0 -8 8 -7 7 2 12 -3
10 -9 -1 -7 3 -13 9 -13 5 0 7 -5 4 -10 -4 -6 -1 -9 5 -8 10 3 69 -94 70 -114
0 -4 -23 5 -52 20 -46 24 -63 27 -148 27 -89 0 -100 -2 -137 -28 -22 -15 -49
-45 -61 -66 -32 -57 -27 -62 9 -8 43 65 99 90 187 85 48 -2 83 -11 122 -31 84
-42 101 -60 120 -131 l18 -64 -46 -5 c-163 -20 -313 -17 -403 9 -10 3 -28 42
-49 104 -18 55 -48 126 -68 157 -80 131 -81 133 -83 223 -2 74 1 92 23 140 37
76 75 115 118 118 19 1 36 5 39 7 6 7 41 -4 67 -21z m-259 -226 c-3 -8 -6 -5
-6 6 -1 11 2 17 5 13 3 -3 4 -12 1 -19z"/>
<path d="M9310 5466 c0 -13 98 -66 123 -66 35 0 89 24 113 51 17 19 15 19
-109 19 -70 0 -127 -2 -127 -4z"/>
<path d="M9521 5025 c0 -11 4 -27 9 -35 9 -13 10 -13 9 0 0 8 -4 24 -9 35 l-9
20 0 -20z"/>
<path d="M9560 4575 c-19 -21 -23 -35 -23 -92 0 -98 40 -163 99 -163 55 0 112
89 97 149 -10 43 -51 99 -82 116 -42 21 -64 19 -91 -10z"/>
<path d="M8928 6228 c12 -13 22 -32 22 -42 0 -10 6 -16 13 -13 6 2 12 14 12
27 0 18 -9 27 -35 38 l-35 14 23 -24z"/>
</g>
</svg>
